<?xml version="1.0" standalone="no"?>
<!DOCTYPE svg PUBLIC "-//W3C//DTD SVG 20010904//EN"
 "http://www.w3.org/TR/2001/REC-SVG-20010904/DTD/svg10.dtd">
<svg version="1.0" xmlns="http://www.w3.org/2000/svg"
 width="32.000000pt" height="32.000000pt" viewBox="0 0 32.000000 32.000000"
 preserveAspectRatio="xMidYMid meet">

<g transform="translate(0.000000,32.000000) scale(0.100000,-0.100000)"
fill="#000000" stroke="none">
<path d="M0 311 c0 -22 32 -96 45 -104 8 -4 11 -15 8 -24 -5 -12 -2 -15 10
-10 9 3 19 2 22 -3 13 -21 27 -9 21 16 -5 17 -3 23 4 19 5 -3 10 -11 10 -16 0
-6 12 -26 26 -45 15 -19 24 -37 21 -41 -4 -3 -9 2 -13 11 -3 9 -10 13 -15 10
-5 -3 -6 3 -3 13 5 15 4 15 -7 -1 -8 -14 -9 -21 -1 -24 7 -2 7 -13 1 -35 -11
-40 -11 -47 1 -47 5 0 8 6 7 13 -2 6 1 2 7 -10 12 -28 22 -29 36 -3 15 27 30
25 56 -7 25 -31 28 -30 38 10 6 26 5 28 -16 22 -26 -9 -23 -3 9 14 19 10 21 8
18 -14 -3 -35 9 -31 22 7 18 52 12 83 -15 81 -27 -3 -29 13 -2 27 43 23 9 132
-45 146 -29 7 -94 -3 -112 -18 -15 -12 -18 -72 -3 -63 6 4 10 -9 9 -32 -1 -21
-3 -30 -6 -19 -5 20 -111 136 -125 136 -4 0 -8 -4 -8 -9z m244 -10 c9 -14 -18
-31 -42 -24 -22 5 -27 14 -15 26 9 10 51 8 57 -2z m-74 -14 c0 -14 -20 -37
-32 -37 -13 0 -9 38 5 43 21 9 27 7 27 -6z m-113 -19 c13 -12 23 -30 23 -40 0
-11 3 -17 8 -15 4 3 8 -6 9 -20 1 -17 -2 -21 -7 -13 -4 7 -13 9 -20 5 -9 -5
-11 -4 -6 4 4 6 -1 19 -13 29 -20 17 -40 72 -25 72 4 0 18 -10 31 -22z m223 7
c15 -18 5 -35 -21 -35 -12 0 -19 7 -19 18 0 33 20 42 40 17z m-59 -25 c10 -6
19 -17 19 -26 0 -12 -4 -12 -20 -4 -15 8 -20 8 -20 -1 0 -7 -9 -4 -22 7 -14
12 -19 14 -13 4 6 -12 5 -12 -5 -3 -28 26 20 44 61 23z m79 -41 c0 -27 -2 -30
-15 -19 -12 10 -15 10 -15 -2 0 -17 -37 -68 -48 -67 -4 1 -14 1 -22 -1 -11 -1
-9 -4 5 -11 20 -9 20 -9 0 -6 -28 3 -28 51 0 54 l20 3 -20 -9 c-11 -5 -17 -10
-12 -12 38 -10 57 8 57 55 0 33 6 39 43 45 4 0 7 -13 7 -30z m-97 -2 c4 3 7 1
7 -6 0 -8 6 -11 16 -7 10 4 14 1 12 -6 -9 -27 -88 -15 -88 13 0 6 5 7 10 4 6
-3 10 -1 10 6 0 8 3 9 13 0 8 -6 17 -8 20 -4z m104 -100 c1 -21 -1 -26 -6 -14
-9 25 -15 25 -40 3 -27 -24 -40 -13 -16 14 14 15 21 17 32 9 10 -9 13 -8 13 5
0 31 15 16 17 -17z m-142 -45 c-3 -3 -11 0 -18 7 -9 10 -8 11 6 5 10 -3 15 -9
12 -12z m9 -27 c-4 -8 -8 -15 -10 -15 -2 0 -4 7 -4 15 0 8 4 15 10 15 5 0 7
-7 4 -15z m86 -11 c0 -8 -4 -12 -10 -9 -5 3 -10 10 -10 16 0 5 5 9 10 9 6 0
10 -7 10 -16z"/>
</g>
</svg>
